<svg width="58" height="58" viewBox="0 0 58 58" fill="none" xmlns="http://www.w3.org/2000/svg">
<circle cx="29" cy="29" r="27" stroke="white" stroke-width="4"/>
<mask id="path-2-inside-1_154_1540" fill="white">
<path d="M29 -1.26763e-06C33.7685 -1.47607e-06 38.4634 1.17587 42.669 3.42347C46.8746 5.67107 50.461 8.92106 53.1107 12.8856C55.7604 16.8501 57.3916 21.4069 57.8598 26.1524C58.3281 30.8978 57.6189 35.6855 55.7951 40.0915L52.1225 38.5712C53.6963 34.7692 54.3083 30.6377 53.9042 26.5427C53.5001 22.4477 52.0925 18.5155 49.806 15.0943C47.5195 11.6732 44.4246 8.86863 40.7955 6.92909C37.1663 4.98955 33.1149 3.97485 29 3.97485L29 -1.26763e-06Z"/>
</mask>
<path d="M29 -1.26763e-06C33.7685 -1.47607e-06 38.4634 1.17587 42.669 3.42347C46.8746 5.67107 50.461 8.92106 53.1107 12.8856C55.7604 16.8501 57.3916 21.4069 57.8598 26.1524C58.3281 30.8978 57.6189 35.6855 55.7951 40.0915L52.1225 38.5712C53.6963 34.7692 54.3083 30.6377 53.9042 26.5427C53.5001 22.4477 52.0925 18.5155 49.806 15.0943C47.5195 11.6732 44.4246 8.86863 40.7955 6.92909C37.1663 4.98955 33.1149 3.97485 29 3.97485L29 -1.26763e-06Z" stroke="#201335" stroke-width="8" mask="url(#path-2-inside-1_154_1540)"/>
<path d="M21.992 24.84H19.56V23.432H23.496V35H21.992V24.84Z" fill="#201335"/>
<path d="M26.3161 35H24.8281L29.3401 23.448H30.8441L26.3161 35ZM31.6124 23.432H39.6924V24.872L35.3084 35H33.6764L38.1084 24.872H31.6124V23.432Z" fill="#8DC73F"/>
</svg>
