<svg width="58" height="58" viewBox="0 0 58 58" fill="none" xmlns="http://www.w3.org/2000/svg">
<circle cx="29" cy="29" r="27" stroke="white" stroke-width="4"/>
<mask id="path-2-inside-1_197_224" fill="white">
<path d="M29 -1.26763e-06C33.7685 -1.47607e-06 38.4634 1.17587 42.669 3.42347C46.8746 5.67107 50.461 8.92106 53.1107 12.8856C55.7604 16.8501 57.3916 21.4069 57.8598 26.1524C58.3281 30.8978 57.6189 35.6855 55.7951 40.0915L52.1225 38.5712C53.6963 34.7692 54.3083 30.6377 53.9042 26.5427C53.5001 22.4477 52.0925 18.5155 49.806 15.0943C47.5195 11.6732 44.4246 8.86863 40.7955 6.92909C37.1663 4.98955 33.1149 3.97485 29 3.97485L29 -1.26763e-06Z"/>
</mask>
<path d="M29 -1.26763e-06C33.7685 -1.47607e-06 38.4634 1.17587 42.669 3.42347C46.8746 5.67107 50.461 8.92106 53.1107 12.8856C55.7604 16.8501 57.3916 21.4069 57.8598 26.1524C58.3281 30.8978 57.6189 35.6855 55.7951 40.0915L52.1225 38.5712C53.6963 34.7692 54.3083 30.6377 53.9042 26.5427C53.5001 22.4477 52.0925 18.5155 49.806 15.0943C47.5195 11.6732 44.4246 8.86863 40.7955 6.92909C37.1663 4.98955 33.1149 3.97485 29 3.97485L29 -1.26763e-06Z" stroke="#201335" stroke-width="8" mask="url(#path-2-inside-1_197_224)"/>
<path d="M23.096 29.016H21.944V27.976L25.224 24.824H20.024V23.432H27.208V24.696L24.04 27.72C26.008 27.96 27.496 29.288 27.496 31.368C27.496 33.704 25.736 35.192 23.384 35.192C21.112 35.192 19.48 33.8 19.48 31.4H21.032C21.032 32.904 21.96 33.784 23.416 33.784C24.92 33.784 25.896 32.824 25.896 31.336C25.896 29.944 24.936 29.016 23.096 29.016Z" fill="#201335"/>
<path d="M29.5818 35H28.0938L32.6058 23.448H34.1098L29.5818 35ZM34.878 23.432H42.958V24.872L38.574 35H36.942L41.374 24.872H34.878V23.432Z" fill="#8DC73F"/>
</svg>
