<svg width="58" height="58" viewBox="0 0 58 58" fill="none" xmlns="http://www.w3.org/2000/svg">
<circle cx="29" cy="29" r="27" stroke="white" stroke-width="4"/>
<mask id="path-2-inside-1_196_220" fill="white">
<path d="M29 -1.26763e-06C33.7685 -1.47607e-06 38.4634 1.17587 42.669 3.42347C46.8746 5.67107 50.461 8.92106 53.1107 12.8856C55.7604 16.8501 57.3916 21.4069 57.8598 26.1524C58.3281 30.8978 57.6189 35.6855 55.7951 40.0915L52.1225 38.5712C53.6963 34.7692 54.3083 30.6377 53.9042 26.5427C53.5001 22.4477 52.0925 18.5155 49.806 15.0943C47.5195 11.6732 44.4246 8.86863 40.7955 6.92909C37.1663 4.98955 33.1149 3.97485 29 3.97485L29 -1.26763e-06Z"/>
</mask>
<path d="M29 -1.26763e-06C33.7685 -1.47607e-06 38.4634 1.17587 42.669 3.42347C46.8746 5.67107 50.461 8.92106 53.1107 12.8856C55.7604 16.8501 57.3916 21.4069 57.8598 26.1524C58.3281 30.8978 57.6189 35.6855 55.7951 40.0915L52.1225 38.5712C53.6963 34.7692 54.3083 30.6377 53.9042 26.5427C53.5001 22.4477 52.0925 18.5155 49.806 15.0943C47.5195 11.6732 44.4246 8.86863 40.7955 6.92909C37.1663 4.98955 33.1149 3.97485 29 3.97485L29 -1.26763e-06Z" stroke="#201335" stroke-width="8" mask="url(#path-2-inside-1_196_220)"/>
<path d="M27.544 34.984L19.736 35V33.8L23.464 30.584C25.336 28.968 25.864 28.184 25.864 26.952C25.864 25.496 25.032 24.632 23.64 24.632C22.216 24.632 21.288 25.672 21.256 27.32H19.688C19.736 24.84 21.304 23.224 23.656 23.224C25.976 23.224 27.464 24.632 27.464 26.856C27.464 28.504 26.648 29.672 24.6 31.448L22.2 33.528H27.544V34.984Z" fill="#201335"/>
<path d="M29.6911 35H28.2031L32.7151 23.448H34.2191L29.6911 35ZM34.9874 23.432H43.0674V24.872L38.6834 35H37.0514L41.4834 24.872H34.9874V23.432Z" fill="#8DC73F"/>
</svg>
