<svg width="30" height="30" viewBox="0 0 30 30" fill="none" xmlns="http://www.w3.org/2000/svg">
<path fill-rule="evenodd" clip-rule="evenodd" d="M15 0C23.2845 0 30 6.7155 30 15C30 23.2845 23.2845 30 15 30C6.7155 30 0 23.2845 0 15C0 6.7155 6.7155 0 15 0ZM21.75 12.75C21.1533 12.75 20.581 12.9871 20.159 13.409C19.7371 13.831 19.5 14.4033 19.5 15C19.5 15.5967 19.7371 16.169 20.159 16.591C20.581 17.0129 21.1533 17.25 21.75 17.25C22.3467 17.25 22.919 17.0129 23.341 16.591C23.7629 16.169 24 15.5967 24 15C24 14.4033 23.7629 13.831 23.341 13.409C22.919 12.9871 22.3467 12.75 21.75 12.75ZM15 12.75C14.4033 12.75 13.831 12.9871 13.409 13.409C12.9871 13.831 12.75 14.4033 12.75 15C12.75 15.5967 12.9871 16.169 13.409 16.591C13.831 17.0129 14.4033 17.25 15 17.25C15.5967 17.25 16.169 17.0129 16.591 16.591C17.0129 16.169 17.25 15.5967 17.25 15C17.25 14.4033 17.0129 13.831 16.591 13.409C16.169 12.9871 15.5967 12.75 15 12.75ZM8.25 12.75C7.65326 12.75 7.08097 12.9871 6.65901 13.409C6.23705 13.831 6 14.4033 6 15C6 15.5967 6.23705 16.169 6.65901 16.591C7.08097 17.0129 7.65326 17.25 8.25 17.25C8.84674 17.25 9.41903 17.0129 9.84099 16.591C10.2629 16.169 10.5 15.5967 10.5 15C10.5 14.4033 10.2629 13.831 9.84099 13.409C9.41903 12.9871 8.84674 12.75 8.25 12.75Z" fill="#696D61"/>
</svg>
