<svg width="31" height="30" viewBox="0 0 31 30" fill="none" xmlns="http://www.w3.org/2000/svg">
<path d="M22.1982 8.55461C21.7107 8.06701 21.4253 7.41336 21.399 6.72439C21.3727 6.03543 21.6075 5.36193 22.0564 4.8386C22.0935 4.79507 22.1128 4.73912 22.1104 4.68197C22.108 4.62481 22.0841 4.57067 22.0435 4.53039L19.4577 1.94172C19.415 1.899 19.357 1.875 19.2966 1.875C19.2362 1.875 19.1782 1.899 19.1355 1.94172L15.014 6.06321C14.8619 6.21523 14.7474 6.4006 14.6794 6.60461C14.6117 6.80909 14.4973 6.99499 14.3453 7.14755C14.1932 7.30011 14.0077 7.41514 13.8034 7.48352C13.5993 7.55154 13.4138 7.66608 13.2614 7.81809L2.69172 18.3855C2.649 18.4282 2.625 18.4862 2.625 18.5466C2.625 18.607 2.649 18.665 2.69172 18.7077L5.27746 21.2935C5.31774 21.3341 5.37188 21.358 5.42904 21.3604C5.48619 21.3628 5.54214 21.3435 5.58567 21.3064C6.10889 20.857 6.78253 20.6219 7.47174 20.648C8.16094 20.6741 8.81484 20.9596 9.30253 21.4473C9.79022 21.935 10.0757 22.5889 10.1018 23.2781C10.128 23.9673 9.89283 24.641 9.44348 25.1642C9.40635 25.2077 9.38705 25.2637 9.38944 25.3208C9.39183 25.378 9.41574 25.4321 9.45637 25.4724L12.0421 28.0581C12.0849 28.1009 12.1428 28.1249 12.2032 28.1249C12.2637 28.1249 12.3216 28.1009 12.3644 28.0581L22.9347 17.4884C23.0867 17.3361 23.2012 17.1506 23.2693 16.9464C23.337 16.7419 23.4514 16.556 23.6034 16.4035C23.7555 16.2509 23.941 16.1359 24.1452 16.0675C24.3492 15.9996 24.5346 15.885 24.6866 15.7329L28.8081 11.6114C28.8509 11.5687 28.8749 11.5107 28.8749 11.4503C28.8749 11.3899 28.8509 11.3319 28.8081 11.2892L26.2224 8.70344C26.1821 8.66281 26.128 8.6389 26.0708 8.63651C26.0137 8.63412 25.9577 8.65343 25.9142 8.69055C25.3916 9.14018 24.7185 9.37597 24.0295 9.35077C23.3406 9.32556 22.6865 9.04123 22.1982 8.55461Z" stroke="#696D61" stroke-width="2.25" stroke-miterlimit="10"/>
<path d="M15.4283 8.2291L14.4609 7.26172M18.0076 10.8084L17.3625 10.1639M20.5869 13.3883L19.9424 12.7432M23.4891 16.2898L22.5217 15.3225" stroke="#696D61" stroke-width="2.25" stroke-miterlimit="10" stroke-linecap="round"/>
</svg>
