<svg width="28" height="28" viewBox="0 0 28 28" fill="none" xmlns="http://www.w3.org/2000/svg">
<circle cx="14" cy="14" r="14" fill="#ECFFD2"/>
<path d="M9.735 18.265C9.80531 18.3352 9.90062 18.3747 10 18.3747C10.0994 18.3747 10.1947 18.3352 10.265 18.265L17.625 10.905V16.5C17.625 16.5995 17.6645 16.6948 17.7348 16.7652C17.8052 16.8355 17.9005 16.875 18 16.875C18.0995 16.875 18.1948 16.8355 18.2652 16.7652C18.3355 16.6948 18.375 16.5995 18.375 16.5V10C18.375 9.90054 18.3355 9.80516 18.2652 9.73483C18.1948 9.66451 18.0995 9.625 18 9.625H11.5C11.4005 9.625 11.3052 9.66451 11.2348 9.73483C11.1645 9.80516 11.125 9.90054 11.125 10C11.125 10.0995 11.1645 10.1948 11.2348 10.2652C11.3052 10.3355 11.4005 10.375 11.5 10.375H17.095L9.735 17.735C9.66477 17.8053 9.62533 17.9006 9.62533 18C9.62533 18.0994 9.66477 18.1947 9.735 18.265Z" fill="#8DC73F"/>
<path d="M9 20H19" stroke="#8DC73F" stroke-linecap="round"/>
</svg>
