<svg width="22" height="22" viewBox="0 0 22 22" fill="none" xmlns="http://www.w3.org/2000/svg">
<path d="M11 20.625C8.44729 20.625 5.99913 19.6109 4.1941 17.8059C2.38906 16.0009 1.375 13.5527 1.375 11C1.375 8.44729 2.38906 5.99913 4.1941 4.1941C5.99913 2.38906 8.44729 1.375 11 1.375C13.5527 1.375 16.0009 2.38906 17.8059 4.1941C19.6109 5.99913 20.625 8.44729 20.625 11C20.625 13.5527 19.6109 16.0009 17.8059 17.8059C16.0009 19.6109 13.5527 20.625 11 20.625ZM11 22C13.9174 22 16.7153 20.8411 18.7782 18.7782C20.8411 16.7153 22 13.9174 22 11C22 8.08262 20.8411 5.28473 18.7782 3.22183C16.7153 1.15893 13.9174 0 11 0C8.08262 0 5.28473 1.15893 3.22183 3.22183C1.15893 5.28473 0 8.08262 0 11C0 13.9174 1.15893 16.7153 3.22183 18.7782C5.28473 20.8411 8.08262 22 11 22Z" fill="#8DC73F"/>
<path d="M15.084 6.83401C15.0742 6.84351 15.065 6.85361 15.0565 6.86426L10.2811 12.9486L7.40322 10.0694C7.20773 9.88723 6.94917 9.78806 6.682 9.79277C6.41484 9.79749 6.15993 9.90572 5.97099 10.0947C5.78205 10.2836 5.67382 10.5385 5.66911 10.8057C5.66439 11.0728 5.76356 11.3314 5.94572 11.5269L9.58397 15.1665C9.68198 15.2643 9.7987 15.3414 9.92715 15.3932C10.0556 15.4449 10.1932 15.4703 10.3316 15.4677C10.4701 15.4652 10.6066 15.4347 10.7331 15.3783C10.8595 15.3218 10.9733 15.2404 11.0676 15.139L16.5566 8.27776C16.7435 8.08159 16.8457 7.81975 16.8411 7.54883C16.8365 7.27792 16.7254 7.0197 16.5319 6.83002C16.3384 6.64033 16.0781 6.53441 15.8071 6.53516C15.5362 6.53591 15.2764 6.64326 15.084 6.83401Z" fill="#8DC73F"/>
</svg>
