<svg width="23" height="22" viewBox="0 0 23 22" fill="none" xmlns="http://www.w3.org/2000/svg">
<g clip-path="url(#clip0_1962_26388)">
<path d="M11.5 22C17.5751 22 22.5 17.0751 22.5 11C22.5 4.92487 17.5751 0 11.5 0C5.42487 0 0.5 4.92487 0.5 11C0.5 17.0751 5.42487 22 11.5 22Z" fill="#F0F0F0"/>
<path d="M11.0215 10.9985H22.4997C22.4997 10.0057 22.3674 9.04384 22.1208 8.12891H11.0215V10.9985Z" fill="#D80027"/>
<path d="M11.0215 5.26021H20.8852C20.2119 4.16141 19.3509 3.19019 18.3471 2.39062H11.0215V5.26021Z" fill="#D80027"/>
<path d="M11.4997 21.9987C14.0885 21.9987 16.468 21.1039 18.347 19.6074H4.65234C6.53137 21.1039 8.91085 21.9987 11.4997 21.9987Z" fill="#D80027"/>
<path d="M2.11447 16.7387H20.8855C21.426 15.8566 21.8453 14.8924 22.121 13.8691H0.878906C1.15464 14.8924 1.57388 15.8566 2.11447 16.7387Z" fill="#D80027"/>
<path d="M5.59541 1.7178H6.59782L5.6654 2.39521L6.02157 3.4913L5.08919 2.81389L4.15681 3.4913L4.46447 2.54439C3.64351 3.22824 2.92395 4.02944 2.33098 4.92216H2.65218L2.05865 5.35335C1.96618 5.50761 1.87749 5.66431 1.7925 5.82334L2.07592 6.69565L1.54715 6.31146C1.41571 6.58994 1.29548 6.8747 1.18741 7.16538L1.49967 8.12651H2.65218L1.71975 8.80391L2.07592 9.9L1.14354 9.2226L0.585035 9.62839C0.529133 10.0778 0.5 10.5355 0.5 11H11.5C11.5 4.92491 11.5 4.2087 11.5 0C9.32698 0 7.30131 0.630352 5.59541 1.7178ZM6.02157 9.9L5.08919 9.2226L4.15681 9.9L4.51298 8.80391L3.58056 8.12651H4.73307L5.08919 7.03042L5.44532 8.12651H6.59782L5.6654 8.80391L6.02157 9.9ZM5.6654 5.59956L6.02157 6.69565L5.08919 6.01825L4.15681 6.69565L4.51298 5.59956L3.58056 4.92216H4.73307L5.08919 3.82607L5.44532 4.92216H6.59782L5.6654 5.59956ZM9.96722 9.9L9.03484 9.2226L8.10246 9.9L8.45863 8.80391L7.52621 8.12651H8.67871L9.03484 7.03042L9.39097 8.12651H10.5435L9.61105 8.80391L9.96722 9.9ZM9.61105 5.59956L9.96722 6.69565L9.03484 6.01825L8.10246 6.69565L8.45863 5.59956L7.52621 4.92216H8.67871L9.03484 3.82607L9.39097 4.92216H10.5435L9.61105 5.59956ZM9.61105 2.39521L9.96722 3.4913L9.03484 2.81389L8.10246 3.4913L8.45863 2.39521L7.52621 1.7178H8.67871L9.03484 0.621715L9.39097 1.7178H10.5435L9.61105 2.39521Z" fill="#0052B4"/>
</g>
<defs>
<clipPath id="clip0_1962_26388">
<rect width="22" height="22" fill="white" transform="translate(0.5)"/>
</clipPath>
</defs>
</svg>
