<svg width="30" height="30" viewBox="0 0 30 30" fill="none" xmlns="http://www.w3.org/2000/svg">
<path d="M15 19.6875C17.0711 19.6875 18.75 18.0086 18.75 15.9375C18.75 13.8664 17.0711 12.1875 15 12.1875C12.9289 12.1875 11.25 13.8664 11.25 15.9375C11.25 18.0086 12.9289 19.6875 15 19.6875Z" fill="#D2D2D2"/>
<path d="M26.7188 8.4375H21.8555C21.6797 8.4375 21.4617 8.32383 21.2918 8.14453L19.6934 5.63672C19.043 4.6875 18.75 4.6875 17.6953 4.6875H12.3047C11.25 4.6875 10.8984 4.6875 10.3084 5.6373L8.7082 8.14453C8.57812 8.28633 8.39531 8.4375 8.20312 8.4375V7.5C8.20312 7.37568 8.15374 7.25645 8.06583 7.16854C7.97792 7.08064 7.8587 7.03125 7.73438 7.03125H5.39062C5.2663 7.03125 5.14708 7.08064 5.05917 7.16854C4.97126 7.25645 4.92188 7.37568 4.92188 7.5V8.4375H3.28125C2.90829 8.4375 2.5506 8.58566 2.28688 8.84938C2.02316 9.1131 1.875 9.47079 1.875 9.84375V23.9062C1.875 24.2792 2.02316 24.6369 2.28688 24.9006C2.5506 25.1643 2.90829 25.3125 3.28125 25.3125H26.7188C27.0917 25.3125 27.4494 25.1643 27.7131 24.9006C27.9768 24.6369 28.125 24.2792 28.125 23.9062V9.84375C28.125 9.47079 27.9768 9.1131 27.7131 8.84938C27.4494 8.58566 27.0917 8.4375 26.7188 8.4375ZM15.2643 21.5566C14.1305 21.6099 13.0071 21.3189 12.0418 20.7219C11.0765 20.125 10.3143 19.2499 9.85546 18.2118C9.39662 17.1736 9.26257 16.021 9.47092 14.9053C9.67927 13.7895 10.2203 12.7629 11.0229 11.9604C11.8254 11.1578 12.852 10.6168 13.9678 10.4084C15.0835 10.2001 16.2361 10.3341 17.2743 10.793C18.3124 11.2518 19.1875 12.014 19.7844 12.9793C20.3814 13.9446 20.6724 15.068 20.6191 16.2018C20.552 17.6003 19.9663 18.9237 18.9762 19.9137C17.9862 20.9038 16.6628 21.4895 15.2643 21.5566Z" fill="#D2D2D2"/>
</svg>
