<svg width="18" height="18" viewBox="0 0 18 18" fill="none" xmlns="http://www.w3.org/2000/svg">
<path d="M9 0.0625C7.23233 0.0625 5.50436 0.586675 4.0346 1.56874C2.56483 2.55081 1.41929 3.94665 0.742831 5.57977C0.0663725 7.21288 -0.11062 9.00992 0.234236 10.7436C0.579091 12.4773 1.43031 14.0698 2.68024 15.3198C3.93017 16.5697 5.52268 17.4209 7.25638 17.7658C8.99009 18.1106 10.7871 17.9336 12.4202 17.2572C14.0534 16.5807 15.4492 15.4352 16.4313 13.9654C17.4133 12.4956 17.9375 10.7677 17.9375 9C17.935 6.6304 16.9926 4.35856 15.317 2.683C13.6414 1.00743 11.3696 0.0650023 9 0.0625ZM9 16.5625C7.50428 16.5625 6.04215 16.119 4.7985 15.288C3.55486 14.457 2.58555 13.2759 2.01316 11.894C1.44078 10.5122 1.29101 8.99161 1.58282 7.52463C1.87462 6.05765 2.59487 4.71014 3.65251 3.65251C4.71014 2.59487 6.05765 1.87461 7.52463 1.58281C8.99162 1.29101 10.5122 1.44077 11.894 2.01316C13.2759 2.58555 14.457 3.55485 15.288 4.7985C16.119 6.04215 16.5625 7.50428 16.5625 9C16.5602 11.005 15.7627 12.9272 14.345 14.345C12.9272 15.7627 11.005 16.5602 9 16.5625Z" fill="#545454"/>
</svg>
