<svg width="22" height="22" viewBox="0 0 22 22" fill="none" xmlns="http://www.w3.org/2000/svg">
<g id="akar-icons:circle-check-fill" clip-path="url(#clip0_0_189)">
<path id="Vector" fill-rule="evenodd" clip-rule="evenodd" d="M11 0.916672C5.43124 0.916672 0.916656 5.43126 0.916656 11C0.916656 16.5688 5.43124 21.0833 11 21.0833C16.5687 21.0833 21.0833 16.5688 21.0833 11C21.0833 5.43126 16.5687 0.916672 11 0.916672ZM15.3707 9.29501C15.4511 9.20301 15.5124 9.09585 15.5509 8.97983C15.5893 8.8638 15.6042 8.74126 15.5946 8.61941C15.585 8.49756 15.5511 8.37886 15.4949 8.27029C15.4388 8.16172 15.3615 8.06549 15.2676 7.98724C15.1737 7.90899 15.0651 7.85031 14.9482 7.81465C14.8313 7.77899 14.7084 7.76707 14.5868 7.7796C14.4652 7.79212 14.3474 7.82884 14.2402 7.88759C14.133 7.94633 14.0386 8.02592 13.9627 8.12167L10.021 12.8508L7.98141 10.8103C7.80852 10.6433 7.57697 10.5509 7.33662 10.553C7.09628 10.5551 6.86636 10.6515 6.69641 10.8214C6.52645 10.9914 6.43004 11.2213 6.42796 11.4616C6.42587 11.702 6.51826 11.9335 6.68524 12.1064L9.43524 14.8564C9.52531 14.9464 9.63314 15.0167 9.75187 15.0627C9.8706 15.1088 9.99761 15.1295 10.1248 15.1238C10.252 15.118 10.3766 15.0858 10.4907 15.0292C10.6048 14.9726 10.7058 14.8928 10.7873 14.795L15.3707 9.29501Z" fill="#8DC73F"/>
</g>
<defs>
<clipPath id="clip0_0_189">
<rect width="22" height="22" fill="white"/>
</clipPath>
</defs>
</svg>
