<svg width="17" height="16" viewBox="0 0 17 16" fill="none" xmlns="http://www.w3.org/2000/svg">
<path d="M10.7077 2.10134L10.0897 2.71934L4.409 8.39934C4.02433 8.78467 3.83166 8.97734 3.66633 9.18934C3.47107 9.43953 3.30364 9.71023 3.167 9.99667C3.05166 10.2393 2.96566 10.498 2.79366 11.014L2.06433 13.2013L1.88566 13.736C1.84387 13.8606 1.83767 13.9945 1.86776 14.1224C1.89785 14.2504 1.96303 14.3674 2.05598 14.4604C2.14893 14.5533 2.26596 14.6185 2.39392 14.6486C2.52188 14.6787 2.6557 14.6725 2.78033 14.6307L3.315 14.452L5.50233 13.7227C6.019 13.5507 6.277 13.4647 6.51966 13.3493C6.80633 13.2127 7.077 13.0453 7.327 12.85C7.539 12.6847 7.73166 12.492 8.11633 12.1073L13.797 6.42667L14.415 5.80867C14.9066 5.31705 15.1828 4.65027 15.1828 3.95501C15.1828 3.25975 14.9066 2.59296 14.415 2.10134C13.9234 1.60972 13.2566 1.33353 12.5613 1.33353C11.8661 1.33353 11.1993 1.60972 10.7077 2.10134Z" stroke="#8DC73F"/>
<path opacity="0.5" d="M10.0897 2.71867C10.0897 2.71867 10.167 4.03201 11.3257 5.19067C12.4843 6.34934 13.797 6.42601 13.797 6.42601M3.315 14.452L2.06433 13.2013" stroke="#8DC73F"/>
</svg>
