<svg width="33" height="33" viewBox="0 0 33 33" fill="none" xmlns="http://www.w3.org/2000/svg">
<path d="M12.375 15.125C13.8938 15.125 15.125 13.8938 15.125 12.375C15.125 10.8562 13.8938 9.625 12.375 9.625C10.8562 9.625 9.625 10.8562 9.625 12.375C9.625 13.8938 10.8562 15.125 12.375 15.125Z" stroke="#696D61" stroke-width="2.0625"/>
<path d="M17.875 20.625C17.875 22.1444 17.875 23.375 12.375 23.375C6.875 23.375 6.875 22.1444 6.875 20.625C6.875 19.1056 9.33625 17.875 12.375 17.875C15.4138 17.875 17.875 19.1056 17.875 20.625Z" stroke="#696D61" stroke-width="2.0625"/>
<path opacity="0.5" d="M2.75 16.5C2.75 11.3149 2.75 8.72162 4.3615 7.1115C5.97162 5.5 8.56488 5.5 13.75 5.5H19.25C24.4351 5.5 27.0284 5.5 28.6385 7.1115C30.25 8.72162 30.25 11.3149 30.25 16.5C30.25 21.6851 30.25 24.2784 28.6385 25.8885C27.0284 27.5 24.4351 27.5 19.25 27.5H13.75C8.56488 27.5 5.97162 27.5 4.3615 25.8885C2.75 24.2784 2.75 21.6851 2.75 16.5Z" stroke="#696D61" stroke-width="2.0625"/>
<path d="M26.125 16.5H20.625M26.125 12.375H19.25" stroke="#696D61" stroke-width="2.0625" stroke-linecap="round"/>
<path opacity="0.9" d="M26.125 20.625H22" stroke="#696D61" stroke-width="2.0625" stroke-linecap="round"/>
</svg>
