<svg width="33" height="33" viewBox="0 0 33 33" fill="none" xmlns="http://www.w3.org/2000/svg">
<path d="M19.3174 7.61751C19.5957 7.55354 19.8871 7.57781 20.151 7.68697C20.4149 7.79613 20.6382 7.98474 20.79 8.22663L22.1568 10.4088C22.267 10.5845 22.4155 10.7331 22.5913 10.8433L24.7734 12.21C25.0158 12.3617 25.2049 12.5852 25.3143 12.8494C25.4237 13.1136 25.4481 13.4053 25.3839 13.684L24.8064 16.192C24.7598 16.3947 24.7598 16.6053 24.8064 16.808L25.3839 19.3174C25.4474 19.5956 25.4228 19.8868 25.3134 20.1504C25.204 20.414 25.0153 20.6371 24.7734 20.7886L22.5913 22.1568C22.4153 22.2667 22.2667 22.4153 22.1568 22.5913L20.79 24.7734C20.6384 25.0155 20.4151 25.2044 20.1512 25.3138C19.8873 25.4232 19.5959 25.4477 19.3174 25.3839L16.808 24.8064C16.6058 24.76 16.3957 24.76 16.1934 24.8064L13.684 25.3839C13.4056 25.4477 13.1141 25.4232 12.8502 25.3138C12.5863 25.2044 12.363 25.0155 12.2114 24.7734L10.8447 22.5913C10.734 22.4154 10.585 22.2668 10.4088 22.1568L8.22804 20.79C7.98591 20.6384 7.79701 20.4151 7.6876 20.1512C7.57819 19.8873 7.55371 19.5958 7.61754 19.3174L8.19367 16.808C8.24026 16.6053 8.24026 16.3947 8.19367 16.192L7.61617 13.684C7.55215 13.4052 7.57669 13.1134 7.68637 12.8491C7.79604 12.5849 7.9854 12.3615 8.22804 12.21L10.4088 10.8433C10.585 10.7332 10.7341 10.5847 10.8447 10.4088L12.2114 8.22663C12.3631 7.985 12.5863 7.79656 12.8499 7.68742C13.1135 7.57828 13.4045 7.55384 13.6827 7.61751L16.1934 8.19363C16.3957 8.24001 16.6058 8.24001 16.808 8.19363L19.3174 7.61751Z" stroke="#696D61" stroke-width="0.916667"/>
<path d="M13.0833 17.237L15.8814 19.9169L19.917 13.0831" stroke="#696D61" stroke-width="0.916667" stroke-linecap="round" stroke-linejoin="round"/>
</svg>
