<svg width="50" height="45" viewBox="0 0 50 45" fill="none" xmlns="http://www.w3.org/2000/svg">
<g clip-path="url(#clip0_10_1832)">
<path d="M45.8333 5.55556H33.3333V13.8889H16.6667V5.55556H4.16667C1.86632 5.55556 0 7.42187 0 9.72222V40.2778C0 42.5781 1.86632 44.4444 4.16667 44.4444H45.8333C48.1337 44.4444 50 42.5781 50 40.2778V9.72222C50 7.42187 48.1337 5.55556 45.8333 5.55556ZM25 19.4444C28.0642 19.4444 30.5556 21.9358 30.5556 25C30.5556 28.0642 28.0642 30.5556 25 30.5556C21.9358 30.5556 19.4444 28.0642 19.4444 25C19.4444 21.9358 21.9358 19.4444 25 19.4444ZM33.099 38.8889H16.901C15.9983 38.8889 15.2691 38.0208 15.5469 37.1701C16.2674 34.9479 18.3594 33.3333 20.8333 33.3333H21.5451C22.6128 33.776 23.776 34.0278 25 34.0278C26.224 34.0278 27.3958 33.776 28.4549 33.3333H29.1667C31.6319 33.3333 33.724 34.9392 34.4531 37.1701C34.7309 38.0208 34.0017 38.8889 33.099 38.8889ZM30.5556 2.77778C30.5556 1.24132 29.3142 0 27.7778 0H22.2222C20.6858 0 19.4444 1.24132 19.4444 2.77778V11.1111H30.5556V2.77778Z" fill="#8DC73F"/>
</g>
<defs>
<clipPath id="clip0_10_1832">
<rect width="50" height="44.4444" fill="white"/>
</clipPath>
</defs>
</svg>
